<svg id="Layer_1" data-name="Layer 1" xmlns="http://www.w3.org/2000/svg" viewBox="0 0 1357.11 1903.14"><g id="Final_Raster" data-name="Final Raster"><path d="M1285.89,1733.23c13.77,8.76,8.69,30-7.52,31.84a408.54,408.54,0,0,1-336.46-116.72c-159.78-159.27-158-422,1.47-581.55l435.55-435.55c108.92-108.92,287-108.71,393.7,2.35,103.29,107.48,102,278.35-3.89,384.24L1264,1522.63c-54.84,54.84-54,143.76,3.15,196.17A135.71,135.71,0,0,0,1285.89,1733.23Z" transform="translate(-822.9 -549.93)"/><path d="M2059.53,1885.29l-486.46,486.46c-108.92,108.92-287,108.71-393.7-2.35-103.29-107.48-102-278.35,3.89-384.24l549.4-549.41c54.27-54.27,53.69-143.19-2.51-195.46a134.65,134.65,0,0,0-13.3-10.87c-17.66-12.67-10.16-40.52,11.45-42.82A408.57,408.57,0,0,1,2061,1303.74C2220.79,1463,2219.06,1725.77,2059.53,1885.29Z" transform="translate(-822.9 -549.93)"/></g></svg>